<?xml version="1.0" encoding="utf-8"?>
<!-- Generator: Adobe Illustrator 16.0.0, SVG Export Plug-In . SVG Version: 6.00 Build 0)  -->
<!DOCTYPE svg PUBLIC "-//W3C//DTD SVG 1.1//EN" "http://www.w3.org/Graphics/SVG/1.1/DTD/svg11.dtd">
<svg version="1.1" id="Layer_1" xmlns="http://www.w3.org/2000/svg" xmlns:xlink="http://www.w3.org/1999/xlink" x="0px" y="0px"
	 width="14px" height="14px" viewBox="0 0 14 14" enable-background="new 0 0 14 14" xml:space="preserve">
<polygon fill="#222222" points="14,6.917 6.917,-0.168 6.917,0 0,0 0,14 7.083,14 7.083,13.833 "/>
<g>
	<path fill="#FFFFFF" d="M2.957,1.286c0.019,0.565-0.396,1.019-1.058,1.019c-0.584,0-1-0.454-1-1.019
		c0-0.585,0.435-1.039,1.039-1.039C2.561,0.247,2.957,0.7,2.957,1.286z M1.108,12.988V3.852h1.66v9.136H1.108z"/>
	<path fill="#FFFFFF" d="M4.527,6.702c0-1.076-0.02-2-0.077-2.85h1.454L5.96,5.646h0.076c0.415-1.228,1.415-2.001,2.53-2.001
		c0.188,0,0.319,0.019,0.471,0.057v1.566C8.868,5.229,8.698,5.211,8.472,5.211c-1.171,0-2.002,0.887-2.229,2.133
		C6.207,7.57,6.168,7.834,6.168,8.117v4.871H4.527V6.702z"/>
</g>
</svg>
