<?xml version="1.0" encoding="utf-8"?>
<!-- Generator: Adobe Illustrator 16.0.0, SVG Export Plug-In . SVG Version: 6.00 Build 0)  -->
<!DOCTYPE svg PUBLIC "-//W3C//DTD SVG 1.1//EN" "http://www.w3.org/Graphics/SVG/1.1/DTD/svg11.dtd">
<svg version="1.1" id="Layer_1" xmlns="http://www.w3.org/2000/svg" xmlns:xlink="http://www.w3.org/1999/xlink" x="0px" y="0px"
	 width="612px" height="792px" viewBox="0 0 612 792" enable-background="new 0 0 612 792" xml:space="preserve">
<g id="Layer_2">
	<path fill="#80AD04" d="M543.588,50.532h-0.006h-17.986V21.156v-10h-10H446.82h-10v10V35.76h-21.498
		c-17.719-3.789-35.729-6.768-53.629-8.872v-1.295l-8.994-0.909c-2.748-0.278-5.512-0.537-8.27-0.776V23.84l-7.969-0.568
		l-9.604-0.716v0.094c-6.639-0.373-13.295-0.628-19.916-0.762v-0.081l-7.875-0.023l-9.158-0.068v0.086
		c-2.693,0.026-5.383,0.072-8.043,0.136l-9.758,0.237v1.301c-0.82,0.035-1.643,0.071-2.461,0.109v-0.108l-8.092,0.54l-7.053,0.403
		v0.086c-37.51,2.828-63.707,8.921-72.699,11.252H159.07V20.885v-10h-10H68.16h-10v10v130.873v248.06v374.889v9.99l9.99,0.01
		l459.9,0.4l9.771,0.01l0.232-9.77l9.055-375.02v-0.058l0.002-0.06l2.1-167.617l3.262-128.321l1.107-43.488l0.26-10.254
		L543.588,50.532L543.588,50.532z"/>
</g>
<g id="Layer_3">
	<g>
		<path fill="#FFFFFF" d="M283.865,289.253v-2.879h2.049v0.197h-1.835v1.131h1.65v0.197h-1.65v1.156h1.855v0.197L283.865,289.253
			L283.865,289.253z"/>
		<path fill="#FFFFFF" d="M286.616,289.253v-2.879h0.214v2.682h1.691v0.197H286.616z"/>
		<path fill="#FFFFFF" d="M289.159,289.253v-2.879h2.048v0.197h-1.834v1.131h1.649v0.197h-1.649v1.156h1.855v0.197L289.159,289.253
			L289.159,289.253z"/>
		<path fill="#FFFFFF" d="M293.12,289.274h-0.189l-1.267-2.9h0.238l1.127,2.649l1.131-2.649h0.227L293.12,289.274z"/>
		<path fill="#FFFFFF" d="M296.986,289.253l-0.366-0.807h-1.699l-0.366,0.807h-0.222l1.341-2.9h0.206l1.341,2.9H296.986z
			 M295.773,286.588l-0.761,1.666h1.518L295.773,286.588z"/>
		<path fill="#FFFFFF" d="M298.784,289.253h-0.958v-2.879h0.958c0.905,0,1.53,0.621,1.53,1.432v0.008
			C300.314,288.624,299.689,289.253,298.784,289.253z M300.092,287.813c0-0.683-0.506-1.242-1.308-1.242h-0.745v2.485h0.745
			c0.802,0,1.308-0.547,1.308-1.234V287.813z"/>
		<path fill="#FFFFFF" d="M302.353,289.303c-0.872,0-1.444-0.695-1.444-1.48v-0.009c0-0.785,0.58-1.489,1.452-1.489
			s1.444,0.695,1.444,1.481c0.004,0.004,0.004,0.004,0,0.008C303.805,288.599,303.225,289.303,302.353,289.303z M303.583,287.813
			c0-0.711-0.518-1.296-1.23-1.296c-0.711,0-1.222,0.576-1.222,1.288v0.008c0,0.712,0.519,1.296,1.23,1.296
			c0.712,0,1.222-0.576,1.222-1.287V287.813z"/>
		<path fill="#FFFFFF" d="M306.601,289.253l-0.917-1.193h-0.942v1.193h-0.214v-2.879h1.21c0.621,0,1.026,0.337,1.026,0.818v0.008
			c0,0.481-0.356,0.757-0.843,0.823l0.95,1.23H306.601z M306.551,287.201c0-0.386-0.304-0.629-0.827-0.629h-0.983v1.296h0.971
			c0.481,0,0.839-0.243,0.839-0.658V287.201z"/>
		<path fill="#FFFFFF" d="M307.497,289.253v-2.879h2.049v0.197h-1.834v1.131h1.648v0.197h-1.648v1.156h1.854v0.197L307.497,289.253
			L307.497,289.253z"/>
		<path fill="#FFFFFF" d="M311.225,289.294c-0.461,0-0.812-0.152-1.158-0.46l0.14-0.161c0.316,0.292,0.608,0.428,1.032,0.428
			c0.432,0,0.728-0.243,0.728-0.571v-0.008c0-0.305-0.16-0.481-0.812-0.613c-0.69-0.14-0.973-0.375-0.973-0.811v-0.008
			c0-0.427,0.393-0.756,0.928-0.756c0.42,0,0.693,0.115,0.985,0.35l-0.136,0.168c-0.271-0.234-0.543-0.325-0.86-0.325
			c-0.423,0-0.7,0.243-0.7,0.543v0.008c0,0.304,0.153,0.489,0.838,0.629c0.667,0.136,0.945,0.375,0.945,0.794v0.008
			C312.179,288.974,311.779,289.294,311.225,289.294z"/>
	</g>
</g>
<g id="Layer_2_1_">
	<g>
		<polygon fill="#3D451E" points="230.75,527.75 237.498,478.184 168.843,478.184 163.75,482.75 163.5,532.5 226.5,532.25 		"/>
		<g>
			<path fill="#3D451E" d="M163.599,189.102H66.604V16.11l96.995,3V189.102z"/>
		</g>
		<polygon fill="#3D451E" points="243.5,202.833 246.833,204.333 246.833,332.333 243.562,334.125 221.062,334.062 221.062,202.875 
					"/>
		<polygon fill="#3D451E" points="346.062,202.5 342.729,204 342.729,337.271 346,339.062 378.334,338.625 378.334,202.167 		"/>
		<polygon fill="#3D451E" points="329.06,226.304 327.688,227.938 327.688,240.688 336.75,240.688 337.774,239.232 337.774,226.304 
					"/>
		<polygon fill="#3D451E" points="257.417,297.042 258.562,298.188 267.458,298.188 267.458,285.542 266.125,284.125 
			257.458,284.125 		"/>
		<polygon fill="#3D451E" points="263.688,224.438 264.844,225.594 279.312,225.594 279.312,216.562 277.562,215.062 
			263.812,215.062 		"/>
		<polygon fill="#3D451E" points="288.333,244.667 289.833,246.167 301.667,246.167 302.333,244.75 		"/>
		<polygon fill="#3D451E" points="337.501,303.875 336.459,303.083 327.959,303.083 328.084,316 328.876,316.75 337.501,316.583 		
			"/>
	</g>
	<g>
		<g>
			<g>
				
					<line fill="none" stroke="#6D8904" stroke-width="3" stroke-miterlimit="10" x1="337.935" y1="422.834" x2="273.334" y2="422.834"/>
				
					<line fill="none" stroke="#6D8904" stroke-width="3" stroke-miterlimit="10" x1="336.368" y1="532.001" x2="336.368" y2="422.834"/>
				
					<line fill="none" stroke="#6D8904" stroke-width="3" stroke-miterlimit="10" x1="337.935" y1="458.834" x2="273.334" y2="458.834"/>
				
					<line fill="none" stroke="#6D8904" stroke-width="3" stroke-miterlimit="10" x1="337.935" y1="494.834" x2="273.334" y2="494.834"/>
				
					<line fill="none" stroke="#6D8904" stroke-width="3" stroke-miterlimit="10" x1="337.935" y1="530.834" x2="273.334" y2="530.834"/>
			</g>
			<g>
				
					<line fill="none" stroke="#6D8904" stroke-width="3" stroke-miterlimit="10" x1="337.935" y1="570.834" x2="273.334" y2="570.834"/>
				
					<line fill="none" stroke="#6D8904" stroke-width="3" stroke-miterlimit="10" x1="336.368" y1="680.334" x2="336.368" y2="570.834"/>
				
					<line fill="none" stroke="#6D8904" stroke-width="3" stroke-miterlimit="10" x1="337.935" y1="606.834" x2="273.334" y2="606.834"/>
				
					<line fill="none" stroke="#6D8904" stroke-width="3" stroke-miterlimit="10" x1="337.935" y1="642.834" x2="273.334" y2="642.834"/>
				
					<line fill="none" stroke="#6D8904" stroke-width="3" stroke-miterlimit="10" x1="337.935" y1="678.834" x2="273.334" y2="678.834"/>
			</g>
		</g>
		<g>
			<g>
				
					<line fill="none" stroke="#6D8904" stroke-width="3" stroke-miterlimit="10" x1="71.334" y1="680.334" x2="135.935" y2="680.334"/>
				<line fill="none" stroke="#6D8904" stroke-width="3" stroke-miterlimit="10" x1="72.9" y1="571.167" x2="72.9" y2="680.334"/>
				
					<line fill="none" stroke="#6D8904" stroke-width="3" stroke-miterlimit="10" x1="71.334" y1="644.334" x2="135.935" y2="644.334"/>
				
					<line fill="none" stroke="#6D8904" stroke-width="3" stroke-miterlimit="10" x1="71.334" y1="608.334" x2="135.935" y2="608.334"/>
				
					<line fill="none" stroke="#6D8904" stroke-width="3" stroke-miterlimit="10" x1="71.334" y1="572.334" x2="135.935" y2="572.334"/>
			</g>
			<g>
				
					<line fill="none" stroke="#6D8904" stroke-width="3" stroke-miterlimit="10" x1="71.334" y1="532.334" x2="135.935" y2="532.334"/>
				<line fill="none" stroke="#6D8904" stroke-width="3" stroke-miterlimit="10" x1="72.9" y1="422.834" x2="72.9" y2="532.334"/>
				
					<line fill="none" stroke="#6D8904" stroke-width="3" stroke-miterlimit="10" x1="71.334" y1="496.334" x2="135.935" y2="496.334"/>
				
					<line fill="none" stroke="#6D8904" stroke-width="3" stroke-miterlimit="10" x1="71.334" y1="460.334" x2="135.935" y2="460.334"/>
				
					<line fill="none" stroke="#6D8904" stroke-width="3" stroke-miterlimit="10" x1="71.334" y1="424.334" x2="135.935" y2="424.334"/>
			</g>
		</g>
		<g>
			
				<line fill="none" stroke="#6D8904" stroke-width="3" stroke-miterlimit="10" x1="353.899" y1="680.334" x2="418.5" y2="680.334"/>
			
				<line fill="none" stroke="#6D8904" stroke-width="3" stroke-miterlimit="10" x1="355.466" y1="571.167" x2="355.466" y2="680.334"/>
			
				<line fill="none" stroke="#6D8904" stroke-width="3" stroke-miterlimit="10" x1="353.899" y1="644.334" x2="418.5" y2="644.334"/>
			
				<line fill="none" stroke="#6D8904" stroke-width="3" stroke-miterlimit="10" x1="353.899" y1="608.334" x2="418.5" y2="608.334"/>
			
				<line fill="none" stroke="#6D8904" stroke-width="3" stroke-miterlimit="10" x1="353.899" y1="572.334" x2="418.5" y2="572.334"/>
		</g>
		<g>
			
				<line fill="none" stroke="#6D8904" stroke-width="3" stroke-miterlimit="10" x1="353.899" y1="532.334" x2="418.5" y2="532.334"/>
			
				<line fill="none" stroke="#6D8904" stroke-width="3" stroke-miterlimit="10" x1="355.466" y1="422.834" x2="355.466" y2="532.334"/>
			
				<line fill="none" stroke="#6D8904" stroke-width="3" stroke-miterlimit="10" x1="353.899" y1="496.334" x2="418.5" y2="496.334"/>
			
				<line fill="none" stroke="#6D8904" stroke-width="3" stroke-miterlimit="10" x1="353.899" y1="460.334" x2="418.5" y2="460.334"/>
			
				<line fill="none" stroke="#6D8904" stroke-width="3" stroke-miterlimit="10" x1="353.899" y1="424.334" x2="418.5" y2="424.334"/>
		</g>
		<g>
			
				<line fill="none" stroke="#6D8904" stroke-width="3" stroke-miterlimit="10" x1="278.958" y1="781.371" x2="278.958" y2="716.77"/>
			
				<line fill="none" stroke="#6D8904" stroke-width="3" stroke-miterlimit="10" x1="169.458" y1="779.805" x2="278.958" y2="779.805"/>
			
				<line fill="none" stroke="#6D8904" stroke-width="3" stroke-miterlimit="10" x1="242.958" y1="781.371" x2="242.958" y2="716.77"/>
			
				<line fill="none" stroke="#6D8904" stroke-width="3" stroke-miterlimit="10" x1="206.958" y1="781.371" x2="206.958" y2="716.77"/>
			
				<line fill="none" stroke="#6D8904" stroke-width="3" stroke-miterlimit="10" x1="170.958" y1="781.371" x2="170.958" y2="716.771"/>
		</g>
		<g>
			
				<line fill="none" stroke="#6D8904" stroke-width="3" stroke-miterlimit="10" x1="386.957" y1="781.371" x2="386.957" y2="716.77"/>
			
				<line fill="none" stroke="#6D8904" stroke-width="3" stroke-miterlimit="10" x1="277.458" y1="779.805" x2="386.957" y2="779.805"/>
			
				<line fill="none" stroke="#6D8904" stroke-width="3" stroke-miterlimit="10" x1="350.957" y1="781.371" x2="350.957" y2="716.77"/>
			
				<line fill="none" stroke="#6D8904" stroke-width="3" stroke-miterlimit="10" x1="314.957" y1="781.371" x2="314.957" y2="716.77"/>
			
				<line fill="none" stroke="#6D8904" stroke-width="3" stroke-miterlimit="10" x1="278.958" y1="781.371" x2="278.958" y2="716.771"/>
		</g>
		<g>
			
				<line fill="none" stroke="#6D8904" stroke-width="3" stroke-miterlimit="10" x1="494.957" y1="781.371" x2="494.957" y2="716.77"/>
			
				<line fill="none" stroke="#6D8904" stroke-width="3" stroke-miterlimit="10" x1="385.457" y1="779.805" x2="494.957" y2="779.805"/>
			
				<line fill="none" stroke="#6D8904" stroke-width="3" stroke-miterlimit="10" x1="458.957" y1="781.371" x2="458.957" y2="716.77"/>
			
				<line fill="none" stroke="#6D8904" stroke-width="3" stroke-miterlimit="10" x1="422.957" y1="781.371" x2="422.957" y2="716.77"/>
			
				<line fill="none" stroke="#6D8904" stroke-width="3" stroke-miterlimit="10" x1="386.957" y1="781.371" x2="386.957" y2="716.771"/>
		</g>
		<g>
			<g>
				
					<line fill="none" stroke="#6D8904" stroke-width="3" stroke-miterlimit="10" x1="535.5" y1="422.834" x2="470.899" y2="422.834"/>
				
					<line fill="none" stroke="#6D8904" stroke-width="3" stroke-miterlimit="10" x1="533.934" y1="532.001" x2="533.934" y2="422.834"/>
				
					<line fill="none" stroke="#6D8904" stroke-width="3" stroke-miterlimit="10" x1="535.5" y1="458.834" x2="470.899" y2="458.834"/>
				
					<line fill="none" stroke="#6D8904" stroke-width="3" stroke-miterlimit="10" x1="535.5" y1="494.834" x2="470.899" y2="494.834"/>
				
					<line fill="none" stroke="#6D8904" stroke-width="3" stroke-miterlimit="10" x1="535.5" y1="530.834" x2="470.899" y2="530.834"/>
			</g>
			<g>
				
					<line fill="none" stroke="#6D8904" stroke-width="3" stroke-miterlimit="10" x1="535.5" y1="570.834" x2="470.899" y2="570.834"/>
				
					<line fill="none" stroke="#6D8904" stroke-width="3" stroke-miterlimit="10" x1="533.934" y1="680.334" x2="533.934" y2="570.834"/>
				
					<line fill="none" stroke="#6D8904" stroke-width="3" stroke-miterlimit="10" x1="535.5" y1="606.834" x2="470.899" y2="606.834"/>
				
					<line fill="none" stroke="#6D8904" stroke-width="3" stroke-miterlimit="10" x1="535.5" y1="642.834" x2="470.899" y2="642.834"/>
				
					<line fill="none" stroke="#6D8904" stroke-width="3" stroke-miterlimit="10" x1="535.5" y1="678.834" x2="470.899" y2="678.834"/>
			</g>
		</g>
		<g>
			
				<line fill="none" stroke="#6D8904" stroke-width="3" stroke-miterlimit="10" x1="535.5" y1="105.348" x2="470.899" y2="105.348"/>
			
				<line fill="none" stroke="#6D8904" stroke-width="3" stroke-miterlimit="10" x1="533.934" y1="214.515" x2="533.934" y2="105.348"/>
			
				<line fill="none" stroke="#6D8904" stroke-width="3" stroke-miterlimit="10" x1="535.5" y1="141.348" x2="470.899" y2="141.348"/>
			
				<line fill="none" stroke="#6D8904" stroke-width="3" stroke-miterlimit="10" x1="535.5" y1="177.348" x2="470.899" y2="177.348"/>
			
				<line fill="none" stroke="#6D8904" stroke-width="3" stroke-miterlimit="10" x1="535.5" y1="213.348" x2="470.899" y2="213.348"/>
		</g>
		<g>
			<g>
				
					<line fill="none" stroke="#6D8904" stroke-width="3" stroke-miterlimit="10" x1="535.5" y1="253.348" x2="470.899" y2="253.348"/>
				
					<line fill="none" stroke="#6D8904" stroke-width="3" stroke-miterlimit="10" x1="533.934" y1="362.848" x2="533.934" y2="253.348"/>
				
					<line fill="none" stroke="#6D8904" stroke-width="3" stroke-miterlimit="10" x1="535.5" y1="289.348" x2="470.899" y2="289.348"/>
				
					<line fill="none" stroke="#6D8904" stroke-width="3" stroke-miterlimit="10" x1="535.5" y1="325.348" x2="470.899" y2="325.348"/>
				
					<line fill="none" stroke="#6D8904" stroke-width="3" stroke-miterlimit="10" x1="535.5" y1="361.348" x2="470.899" y2="361.348"/>
			</g>
			<g>
				
					<line fill="none" stroke="#6D8904" stroke-width="3" stroke-miterlimit="10" x1="389.899" y1="362.848" x2="454.5" y2="362.848"/>
				
					<line fill="none" stroke="#6D8904" stroke-width="3" stroke-miterlimit="10" x1="391.466" y1="253.681" x2="391.466" y2="362.848"/>
				
					<line fill="none" stroke="#6D8904" stroke-width="3" stroke-miterlimit="10" x1="389.899" y1="326.848" x2="454.5" y2="326.848"/>
				
					<line fill="none" stroke="#6D8904" stroke-width="3" stroke-miterlimit="10" x1="389.899" y1="290.848" x2="454.5" y2="290.848"/>
				
					<line fill="none" stroke="#6D8904" stroke-width="3" stroke-miterlimit="10" x1="389.899" y1="254.848" x2="454.5" y2="254.848"/>
			</g>
		</g>
		<g>
			<g>
				
					<line fill="none" stroke="#6D8904" stroke-width="3" stroke-miterlimit="10" x1="212.5" y1="253.348" x2="147.899" y2="253.348"/>
				
					<line fill="none" stroke="#6D8904" stroke-width="3" stroke-miterlimit="10" x1="210.934" y1="362.848" x2="210.934" y2="253.348"/>
				
					<line fill="none" stroke="#6D8904" stroke-width="3" stroke-miterlimit="10" x1="212.5" y1="289.348" x2="147.899" y2="289.348"/>
				
					<line fill="none" stroke="#6D8904" stroke-width="3" stroke-miterlimit="10" x1="212.5" y1="325.348" x2="147.899" y2="325.348"/>
				
					<line fill="none" stroke="#6D8904" stroke-width="3" stroke-miterlimit="10" x1="212.5" y1="361.348" x2="147.899" y2="361.348"/>
			</g>
			<g>
				
					<line fill="none" stroke="#6D8904" stroke-width="3" stroke-miterlimit="10" x1="66.899" y1="362.848" x2="131.5" y2="362.848"/>
				
					<line fill="none" stroke="#6D8904" stroke-width="3" stroke-miterlimit="10" x1="68.466" y1="253.681" x2="68.466" y2="362.848"/>
				
					<line fill="none" stroke="#6D8904" stroke-width="3" stroke-miterlimit="10" x1="66.899" y1="326.848" x2="131.5" y2="326.848"/>
				
					<line fill="none" stroke="#6D8904" stroke-width="3" stroke-miterlimit="10" x1="66.899" y1="290.848" x2="131.5" y2="290.848"/>
				
					<line fill="none" stroke="#6D8904" stroke-width="3" stroke-miterlimit="10" x1="66.899" y1="254.848" x2="131.5" y2="254.848"/>
			</g>
		</g>
		<g>
			
				<line fill="none" stroke="#6D8904" stroke-width="3" stroke-miterlimit="10" x1="389.899" y1="214.848" x2="454.5" y2="214.848"/>
			
				<line fill="none" stroke="#6D8904" stroke-width="3" stroke-miterlimit="10" x1="391.466" y1="105.348" x2="391.466" y2="214.848"/>
			
				<line fill="none" stroke="#6D8904" stroke-width="3" stroke-miterlimit="10" x1="389.899" y1="178.848" x2="454.5" y2="178.848"/>
			
				<line fill="none" stroke="#6D8904" stroke-width="3" stroke-miterlimit="10" x1="389.899" y1="142.848" x2="454.5" y2="142.848"/>
			
				<line fill="none" stroke="#6D8904" stroke-width="3" stroke-miterlimit="10" x1="389.899" y1="106.848" x2="454.5" y2="106.848"/>
		</g>
	</g>
	<polyline fill="#3D451E" points="66.604,189.102 61.104,184.602 66.75,184.602 	"/>
	<polyline fill="#3D451E" points="157.099,13.61 163.599,19.11 157.083,18.833 157.099,13.61 	"/>
	<polyline fill="#3D451E" points="249.914,261.706 250.75,262.375 259.125,262.375 259.167,249.625 258.627,248.778 
		249.914,248.778 249.914,261.706 	"/>
	<g>
		<circle fill="#3D451E" cx="455.167" cy="393.5" r="17.667"/>
		<g>
			<path fill="#FFFFFF" d="M456.188,397.579h-3.392v6.089h-4.466v-20.297h8.293c4.841,0,7.77,2.871,7.77,7.018v0.058
				C464.393,395.144,460.74,397.579,456.188,397.579z M459.87,390.476c0-2.002-1.392-3.074-3.624-3.074h-3.45v6.205h3.537
				c2.232,0,3.537-1.334,3.537-3.072V390.476z"/>
		</g>
	</g>
	<g>
		<circle fill="#3D451E" cx="198.871" cy="612.421" r="17.667"/>
		<g>
			<path fill="#FFFFFF" d="M199.892,616.5H196.5v6.089h-4.466v-20.297h8.293c4.841,0,7.77,2.871,7.77,7.018v0.058
				C208.097,614.064,204.444,616.5,199.892,616.5z M203.574,609.396c0-2.002-1.392-3.074-3.624-3.074h-3.45v6.205h3.537
				c2.232,0,3.537-1.334,3.537-3.072V609.396z"/>
		</g>
	</g>
</g>
<g id="Layer_5">
	<rect x="249.914" y="248.778" fill="#4E6303" width="8.713" height="12.928"/>
	<rect x="329.06" y="226.304" fill="#4E6303" width="8.715" height="12.928"/>
	<rect x="328.872" y="303.875" fill="#4E6303" width="8.713" height="12.929"/>
	<path fill="#FFFFFF" d="M308.783,360.353h-21.376c-9.098,0-16.499-7.401-16.499-16.501v-88.688c0-0.828,0.671-1.5,1.499-1.5
		c0.829,0,1.5,0.672,1.5,1.5v88.688c0,7.443,6.057,13.502,13.5,13.502h21.376c7.441,0,13.5-6.059,13.5-13.502v-88.688
		c0-0.828,0.671-1.5,1.5-1.5c0.828,0,1.5,0.672,1.5,1.5v88.688C325.283,352.951,317.882,360.353,308.783,360.353"/>
	<path fill="#FFFFFF" d="M307.284,351.539h-19.127c-4.962,0-9-4.037-9-8.999v-87.377c0-0.828,0.672-1.5,1.502-1.5
		c0.827,0,1.499,0.672,1.499,1.5v87.377c0,3.309,2.692,5.999,5.999,5.999h19.127c3.308,0,5.999-2.69,5.999-5.999v-87.377
		c0-0.828,0.672-1.5,1.5-1.5s1.5,0.672,1.5,1.5v87.377C316.283,347.502,312.245,351.539,307.284,351.539"/>
	<rect x="286.155" y="252.74" fill="#FFFFFF" width="23.396" height="15.75"/>
	<rect x="283.435" y="271.989" fill="#FFFFFF" width="14.135" height="12.912"/>
	<rect x="298.423" y="271.989" fill="#FFFFFF" width="14.136" height="12.912"/>
	<g>
		<path fill="#80AD04" d="M290.64,273.709l-2.149,3.412h4.3L290.64,273.709z M290.641,283.057l2.149-3.412h-4.3L290.641,283.057z"/>
	</g>
	<g>
		<path fill="#80AD04" d="M306.265,273.709l-2.147,3.412h4.3L306.265,273.709z M306.266,283.057l2.149-3.412h-4.3L306.266,283.057z"
			/>
	</g>
</g>
<g id="landmarks">
	<polygon id="autolimpio" fill="#FFFFFF" points="163.343,482.684 163.343,532.629 225.584,532.629 232.347,482.684 	"/>
	<rect id="lallave" x="221.138" y="313.488" fill="#FFFFFF" width="22.417" height="20.573"/>
	<rect id="celcomer" x="221.138" y="291.357" fill="#FFFFFF" width="22.417" height="20.573"/>
	<rect id="gifts" x="221.138" y="269.228" fill="#FFFFFF" width="22.417" height="20.573"/>
	<rect id="boxvideo" x="221.138" y="247.097" fill="#FFFFFF" width="22.417" height="20.573"/>
	<rect id="ubs" x="221.138" y="224.967" fill="#FFFFFF" width="22.417" height="20.573"/>
	<rect id="ecofiltro" x="221.138" y="202.836" fill="#FFFFFF" width="22.417" height="20.573"/>
	<rect id="american2" x="257.444" y="284.124" fill="#FFFFFF" width="8.713" height="12.929"/>
	<rect id="bodycare2" x="288.436" y="235.253" fill="#FFFFFF" width="13.87" height="9.45"/>
	<rect id="corpesa" x="263.743" y="214.968" fill="#FFFFFF" width="13.869" height="9.45"/>
	<rect id="queensspa" x="346.235" y="202.683" fill="#FFFFFF" width="32.146" height="25.788"/>
	<rect id="viuri" x="346.235" y="230.115" fill="#FFFFFF" width="32.146" height="17.457"/>
	<rect id="dogsmart" x="346.235" y="249.288" fill="#FFFFFF" width="32.146" height="19.905"/>
	<rect id="libreriaclips" x="346.229" y="270.742" fill="#FFFFFF" width="32.163" height="23.867"/>
	<rect id="vrcmotorshop" x="346.17" y="296.093" fill="#FFFFFF" width="32.279" height="22.709"/>
	<rect id="krysthal" x="346.235" y="320.294" fill="#FFFFFF" width="32.146" height="18.756"/>
	<rect id="f1karts" x="61.104" y="13.61" fill="#FFFFFF" width="95.995" height="170.992"/>
</g>
<g>
	<g>
		<path fill="#5E5E5E" d="M115.882,102.848c0.922,0.937,1.823,1.896,2.775,2.802c0.406,0.387,0.557,0.781,0.495,1.328
			c-0.078,0.692-0.092,1.393-0.134,2.09c-0.013,0.45-0.025,0.901-0.038,1.352c-0.101,2.213-0.255,4.426-0.291,6.641
			c-0.044,2.699,0.01,5.399,0.029,8.099c0.001,0.16,0.065,0.32,0.099,0.479c0.069,1.067,0.138,2.133,0.208,3.2
			c0.227,1.245,0.455,2.489,0.682,3.734c-0.233-0.032-0.497-0.006-0.695-0.105c-0.911-0.459-1.805-0.953-2.705-1.436
			c-0.968-0.598-1.937-1.197-2.906-1.796c-0.318-0.195-0.636-0.39-0.954-0.584c-1.48-1.066-2.96-2.131-4.441-3.198
			c-0.061-0.049-0.123-0.099-0.183-0.148c-0.104-0.283-0.208-0.566-0.312-0.849c0.053-0.565,0.105-1.129,0.157-1.695
			c0.01-1.234,0.039-2.468,0.022-3.701c-0.01-0.785-0.421-1.32-1.18-1.553c-0.399-0.122-0.81-0.209-1.215-0.312
			c-0.441-0.137-0.883-0.274-1.309-0.407c-0.014-0.301-0.024-0.545-0.035-0.791c0.01-1.206,0.023-2.412,0.028-3.618
			c0.004-0.814,0.026-1.63-0.014-2.443c-0.081-1.629-0.749-3.008-1.916-4.1c0.289-0.304,0.516-0.544,0.745-0.785l-0.001-0.004
			c0.058-0.064,0.116-0.128,0.174-0.193c0.108-0.16,0.218-0.32,0.327-0.479c0.209-0.543,0.581-1.082,0.599-1.631
			c0.084-2.493,0.068-4.99,0.088-7.485c-0.165-1.629,0.625-3.316-0.295-4.903c-0.052-0.09,0.002-0.25,0.027-0.373
			c0.104-0.514,0.288-1.023,0.312-1.541c0.05-1.037-0.025-2.08,0.025-3.117c0.059-1.217-0.027-2.357-1.075-3.19
			c-0.014-0.011,0.025-0.086,0.043-0.146c0.249,0.018,0.497,0.035,0.745,0.052c0.283,0.082,0.566,0.163,0.85,0.244
			c0.56,0.144,1.182,0.517,1.667,0.386c1.089-0.294,1.549,0.343,2.066,1.021c0.054,0.105,0.108,0.211,0.163,0.316
			c-1.352,2.469-2.703,4.938-4.097,7.485c0.658,0.537,1.276,1.04,1.893,1.542c2.684,2.777,5.366,5.556,8.052,8.33
			c0.214,0.221,0.453,0.417,0.68,0.624C115.32,102.276,115.601,102.562,115.882,102.848z"/>
		<path fill="#5E5E5E" d="M126.062,126.653c0-4.14,0-8.28,0-12.421c0.092-0.01,0.184-0.02,0.276-0.029
			c0.759,0.89,1.518,1.78,2.276,2.67c0.632,0.776,1.265,1.553,1.897,2.329c0.609,1.417,1.217,2.835,1.826,4.252
			c0.072,0.557,0.145,1.114,0.217,1.67c0.04,1.75,0.08,3.499,0.12,5.248c0.015,0.392,0.029,0.784,0.044,1.177
			c0.265,1.306,0.531,2.613,0.796,3.919c0.467,0.992,0.934,1.983,1.454,3.087c-0.979-0.145-1.953-0.288-2.928-0.432
			c-0.633-0.263-1.266-0.526-1.9-0.791c-1.302-0.74-2.301-1.781-3.044-3.075c-0.336-1.354-0.673-2.709-1.01-4.064
			C126.078,129.014,126.07,127.833,126.062,126.653z"/>
		<path fill="#5E5E5E" d="M95.69,84.134c-2.292,0.958-4.583,1.916-7.032,2.939c0-1.049,0-1.984,0-2.92
			c0-0.983,0.028-1.967-0.011-2.948c-0.022-0.528,0.144-0.802,0.655-0.992c1.123-0.416,2.219-0.905,3.325-1.365
			c0.434-0.145,0.869-0.289,1.527-0.507c-0.764-0.186-1.304-0.316-1.844-0.447c-1.225-0.34-2.448-0.68-3.673-1.02
			c-0.017-0.99-0.032-1.979-0.049-2.969c0.057-0.839,0.113-1.678,0.168-2.517c2.641,0.66,5.283,1.32,7.924,1.98
			c0.847,0.229,1.693,0.459,2.54,0.688c1.038,0.25,2.075,0.5,3.113,0.75c0.755,0.216,1.51,0.432,2.266,0.648
			c0.475,0.143,0.939,0.338,1.424,0.417c0.546,0.088,0.755,0.36,0.705,0.883c0,1.577,0,3.154,0,4.785
			c-0.455-0.072-0.778-0.123-1.101-0.174c-0.783-0.201-1.565-0.402-2.348-0.604c-1.045-0.298-2.088-0.609-3.14-0.881
			c-0.176-0.046-0.396,0.078-0.597,0.123c0.066,0.22,0.069,0.5,0.209,0.652c0.701,0.763,1.401,1.534,2.174,2.221
			c0.636,0.565,0.991,1.172,0.844,2.037c-0.037,0.215,0.014,0.445,0.025,0.668c-0.003,0.501-0.007,1-0.011,1.5
			c0,0.894,0,1.789,0,2.686c-1.648-1.595-3.274-3.166-4.899-4.737C96.759,83.652,96.759,83.652,95.69,84.134z"/>
		<path fill="#5E5E5E" d="M97.534,51.724c0.108,0.014,0.217,0.027,0.326,0.042c1.804,0.507,3.608,1.016,5.411,1.523
			c0.911,0.255,1.821,0.51,2.732,0.766c0.559,0.101,0.74,0.4,0.723,0.992c-0.046,1.599-0.005,3.201,0.001,4.801
			c0,1.427,0.001,2.855,0.001,4.282c0.002,0.207,0.004,0.413,0.006,0.62c0,0.963,0,1.927,0,2.96
			c-1.144-0.266-2.135-0.498-3.127-0.729c-0.223-0.064-0.446-0.129-0.669-0.194c-0.123-0.054-0.242-0.144-0.369-0.157
			c-0.79-0.084-1.058-0.491-0.977-1.287c0.075-0.744-0.004-1.503-0.015-2.257c-0.012-0.275-0.024-0.55-0.036-0.826
			c0.022-1.14,0.075-2.28,0.038-3.418c-0.006-0.187-0.402-0.36-0.618-0.541c-0.283-0.091-0.566-0.183-0.883-0.286
			c0,0.559,0,1.036,0,1.512c0.002,0.459,0.005,0.917,0.007,1.376c0.001,0.724,0.001,1.448,0.002,2.172
			c-0.025,0.156-0.05,0.312-0.076,0.471c-0.287-0.04-0.545-0.075-0.804-0.111c-0.617-0.172-1.235-0.344-1.853-0.516
			c-0.443-0.141-0.879-0.341-1.333-0.409c-0.6-0.09-0.78-0.41-0.719-0.955c0-1.595,0-3.191,0-4.852
			c-0.611-0.165-1.226-0.331-1.839-0.496c-1.121-0.307-2.243-0.612-3.365-0.918c-0.475-0.149-0.95-0.298-1.547-0.487
			c0-1.224,0-2.468,0-3.711c0.01-0.555,0.02-1.11,0.03-1.666c0.339,0.032,0.68,0.062,1.019,0.094c1,0.273,1.999,0.547,2.999,0.821
			c0.686,0.188,1.372,0.375,2.059,0.563C95.616,51.176,96.575,51.45,97.534,51.724z"/>
		<path fill="#5E5E5E" d="M84.038,63.93c0.239-0.05,0.503-0.193,0.714-0.137c3.8,1.024,7.593,2.074,11.389,3.115
			c0.157,0.043,0.322,0.058,0.532,0.094c0-0.485,0-0.93,0-1.375c0.099-0.098,0.199-0.195,0.298-0.292
			c0.408,0.105,0.817,0.211,1.225,0.317c0.096,0.051,0.185,0.124,0.286,0.147c0.885,0.214,1.768,0.368,2.151,1.417
			c0.103,0.28,0.625,0.407,0.955,0.604c-0.003,1.014-0.006,2.029-0.01,3.043c-0.056,0.085-0.131,0.165-0.165,0.258
			c-0.518,1.474-1.339,1.944-2.886,1.643c-0.565-0.11-1.13-0.229-1.695-0.345c-2.207-0.634-4.412-1.278-6.622-1.9
			c-2.024-0.57-4.054-1.117-6.114-1.684c-0.027-0.53-0.053-1.026-0.079-1.523C84.025,66.186,84.031,65.058,84.038,63.93z"/>
		<path fill="#5E5E5E" d="M90.431,139.303c-0.089-0.058-0.177-0.117-0.265-0.175c-0.093-0.099-0.187-0.197-0.28-0.295
			c-0.866-0.97-1.255-2.096-1.194-3.4c0.029-0.611-0.05-1.227-0.08-1.841c-0.009-0.109-0.019-0.217-0.028-0.326
			c0.013-0.58,0.024-1.161,0.037-1.741c0.009-1.516,0.018-3.032,0.028-4.547c0.023-0.969,0.047-1.938,0.071-2.908
			c0.119,0.004,0.238,0.008,0.357,0.012c0.955,0.238,1.909,0.477,2.863,0.715c0.345,0.096,0.69,0.191,1.034,0.287
			c0.043,0.025,0.09,0.041,0.14,0.048c0.014,1.353,0.028,2.705,0.042,4.057c-0.009,1.659-0.034,3.319-0.004,4.977
			c0.003,0.196,0.312,0.386,0.479,0.579c0.107-0.222,0.305-0.444,0.308-0.667c0.028-1.799-0.051-3.603,0.053-5.396
			c0.047-0.799,0.44-1.577,0.675-2.364c0.613-0.128,1.266-0.459,1.833-0.351c1.931,0.37,3.979,0.544,5.387,2.217
			c0.253,0.706,0.609,1.396,0.734,2.125c0.156,0.905,0.12,1.843,0.167,2.767c0.002,0.393,0.004,0.785,0.006,1.178
			c0,1.016,0,2.031,0,3.047c0,1.614,0,3.229,0,4.935c-0.451-0.083-0.819-0.152-1.188-0.22c-0.862-0.237-1.72-0.497-2.59-0.703
			c-0.511-0.122-0.717-0.337-0.708-0.908c0.041-2.589,0.03-5.179,0.022-7.77c0-0.292-0.094-0.583-0.145-0.875
			c-0.203-0.067-0.406-0.136-0.696-0.233c0,1.821,0.004,3.551-0.003,5.28c-0.002,0.447-0.015,0.896-0.067,1.339
			c-0.208,1.773-0.695,2.274-2.428,2.54c-0.904-0.218-1.808-0.435-2.711-0.652C91.664,139.79,91.047,139.546,90.431,139.303z"/>
		<path fill="#5E5E5E" d="M93.242,124.254c-1.494-0.39-2.986-0.779-4.48-1.168c-0.023-2.025-0.046-4.05-0.069-6.075
			c0.505-2.071,1.467-2.734,3.325-2.29c0.217,0.052,0.432,0.116,0.649,0.171c1.95,0.49,3.9,0.981,5.85,1.471
			c1.867,0.492,3.734,0.983,5.602,1.475c0.045,0.033,0.095,0.042,0.148,0.029c0.508,0.152,1.005,0.36,1.524,0.443
			c0.535,0.084,0.677,0.327,0.667,0.841c-0.02,1.204,0.019,2.41,0.034,3.615c-0.001,0.109-0.003,0.219-0.004,0.328
			c-0.032,0.271-0.065,0.54-0.104,0.862c-1.282-0.322-2.512-0.63-3.789-0.951c0,0.533,0.019,0.955-0.004,1.373
			c-0.043,0.765-0.11,1.528-0.167,2.291c-0.722-0.182-1.444-0.363-2.167-0.544c-0.667-0.246-1.607-0.31-1.924-0.787
			c-0.339-0.511-0.092-1.412-0.1-2.143c-0.001-0.113-0.018-0.229,0.002-0.337c0.157-0.849-0.205-1.258-1.055-1.261
			c-0.048-0.03-0.099-0.039-0.154-0.027c-1.201-0.332-2.402-0.664-3.785-1.045C93.242,121.865,93.242,123.06,93.242,124.254z"/>
		<path fill="#5E5E5E" d="M111.553,74.797c-0.889-1.031-1.777-2.062-2.667-3.093c-0.53-0.669-1.06-1.34-1.589-2.01
			c0.107-0.276,0.195-0.562,0.325-0.826c0.351-0.709,0.72-1.408,1.083-2.11c0.13-0.17,0.261-0.34,0.427-0.555
			c0.245,0.268,0.481,0.525,0.718,0.784c0.283,0.379,0.571,0.754,0.847,1.139c0.699,0.973,1.392,1.95,2.087,2.925
			c-0.173,0.672-0.347,1.342-0.521,2.014C112.028,73.642,111.791,74.22,111.553,74.797z"/>
		<path fill="#5E5E5E" d="M116.264,68.008c1.026,1.272,1.242,2.75,1.124,4.324c-0.027,0.353,0.047,0.712,0.075,1.068
			c0,0.281,0.001,0.561,0.002,0.843c-0.052,0.319-0.104,0.639-0.156,0.962c-0.592-0.671-1.172-1.328-1.752-1.986
			c-0.642-1.021-1.396-1.906-2.65-2.188c0.445-1.073,0.89-2.146,1.336-3.22c0.193-0.398,0.386-0.796,0.62-1.279
			C115.355,67.053,115.81,67.53,116.264,68.008z"/>
		<path fill="#5E5E5E" d="M111.487,76.788c0.032-0.539,0.062-1.078,0.094-1.618c0.246,0.109,0.551,0.161,0.728,0.338
			c1.08,1.087,2.131,2.203,3.191,3.309c0.373,0.563,0.745,1.126,1.117,1.689c0.059,0.123,0.097,0.261,0.18,0.364
			c0.273,0.341,0.562,0.668,0.845,1c0.062-0.514,0.124-1.027,0.186-1.541c-0.011-0.787-0.022-1.573-0.033-2.359
			c0-0.596,0-1.191,0-1.991c0.944,1.117,1.748,2.068,2.551,3.02c0.094,0.134,0.188,0.269,0.283,0.403l-0.018-0.017
			c0.339,2.046,0.685,4.091,1.007,6.139c0.037,0.238-0.058,0.496-0.091,0.745c-0.261-0.246-0.521-0.491-0.781-0.737
			c-0.994-0.94-1.986-1.881-2.869-2.717c0.415,2.592,0.86,5.379,1.307,8.166c0.098,0.533,0.196,1.067,0.295,1.602
			c0.072,0.759,0.144,1.519,0.242,2.54c-1.873-1.853-3.569-3.532-5.266-5.212c-0.211-0.219-0.423-0.438-0.634-0.657
			c-0.63-0.621-1.26-1.242-1.891-1.863c-1.139-1.127-2.279-2.254-3.417-3.381c-0.055-0.104-0.108-0.211-0.163-0.316
			c0.138-0.044,0.346-0.045,0.405-0.14c0.994-1.579,1.962-3.173,2.339-5.04C111.224,77.939,111.355,77.363,111.487,76.788z"/>
		<path fill="#5E5E5E" d="M123.345,99.623c1.348,1.7,2.059,3.682,2.561,5.759c0.073,0.494,0.145,0.988,0.218,1.482
			c0.214,2.286,0.217,4.563-0.202,6.989c-2.145-2.459-4.185-4.79-6.205-7.139c-0.118-0.137-0.144-0.463-0.067-0.637
			c0.327-0.746,0.864-1.363,0.777-2.313c-0.053-0.582,0.577-1.212,0.558-1.811c-0.051-1.612-0.279-3.22-0.454-4.828
			c-0.042-0.381-0.152-0.756-0.28-1.375c0.814,1.018,1.471,1.839,2.128,2.661C122.7,98.815,123.022,99.219,123.345,99.623z"/>
		<path fill="#5E5E5E" d="M128.75,101.507c0.222,1.415,0.444,2.829,0.706,4.499c-0.396-0.385-0.64-0.619-0.879-0.857
			c-0.44-0.436-0.853-0.903-1.318-1.309c-1.672-1.454-2.701-3.051-2.701-5.491c0-3.521-1.043-6.929-2.17-10.269
			c-0.079-0.234-0.138-0.475-0.103-0.78c0.123,0.15,0.256,0.294,0.368,0.453c1.047,1.498,2.272,2.906,3.088,4.522
			c0.927,1.837,1.491,3.857,2.206,5.801c0.125,0.337,0.212,0.688,0.317,1.032c0.13,0.671,0.259,1.343,0.389,2.014
			c0.034,0.125,0.066,0.249,0.1,0.374L128.75,101.507z"/>
		<path fill="#5E5E5E" d="M123.1,76.038l0.01,0.072c0.178,1.857,0.355,3.714,0.534,5.57c0.041,0.429,0.082,0.857,0.144,1.505
			c-0.404-0.449-0.654-0.728-0.904-1.005c-0.393-0.504-0.785-1.008-1.178-1.513c-0.365-0.427-0.73-0.854-1.095-1.281
			c0,0,0.018,0.017,0.019,0.017c-0.047-0.149-0.094-0.299-0.141-0.449c-0.06-1.35-0.119-2.699-0.179-4.048
			c-0.009-0.438-0.018-0.877-0.027-1.316c0.023-0.296,0.046-0.593,0.078-0.995c0.831,0.882,1.591,1.689,2.35,2.495
			C122.84,75.406,122.97,75.722,123.1,76.038z"/>
		<path fill="#5E5E5E" d="M102.064,103.818c-0.049,0.057-0.098,0.113-0.147,0.17c-0.858,0.651-1.809,0.678-2.805,0.424
			c-1.141-0.292-2.285-0.575-3.428-0.862c-1.163-0.31-2.328-0.615-3.489-0.932c-2.367-0.646-3.492-2.106-3.537-4.571
			c-0.022-1.173-0.052-2.346-0.078-3.52c0.003-0.681,0.006-1.361,0.008-2.042c0.105-1.28,0.304-2.561,0.289-3.839
			c-0.013-1.137,0.89-1.311,1.504-1.358c2.026-0.159,3.98,0.318,5.645,1.519c1.157,0.834,1.45,2.165,1.463,3.532
			c0.018,1.856,0.016,3.714-0.003,5.57c-0.005,0.494,0.125,0.75,0.724,0.643c0-2.95,0-5.895,0-8.995
			c1.545,0.392,2.995,0.76,4.588,1.166c0,1.878,0,3.781,0,5.684c-0.012,1.37,0.04,2.744-0.056,4.107
			c-0.074,1.043-0.335,2.074-0.514,3.11h0.003C102.176,103.689,102.12,103.754,102.064,103.818z M94.092,94.718
			c0.139-1.46,0.097-1.524-1.062-1.495c0.029,0.493,0.058,0.985,0.087,1.478c-0.005,0.563-0.008,1.125-0.012,1.689
			c-0.166,0.96-0.075,1.064,1.005,1.125c0-0.438,0-0.875,0-1.312C94.106,95.708,94.1,95.212,94.092,94.718z"/>
		<path fill="#5E5E5E" d="M94.842,104.391c1.347,0.37,2.688,0.762,4.042,1.106c2.518,0.64,3.652,1.951,3.854,4.521
			c0.021,0.28,0.023,0.561,0.023,0.841c0.002,1.794,0,3.589,0,5.457c-0.995-0.229-1.934-0.446-2.874-0.662
			c-0.501-0.141-1.003-0.283-1.504-0.424c-0.117-0.215-0.325-0.426-0.333-0.645c-0.037-1.036,0.018-2.075-0.045-3.109
			c-0.018-0.281-0.285-0.723-0.52-0.787c-2.374-0.644-4.765-1.225-7.151-1.824c-1.69-0.624-1.688-0.624-1.677-2.519
			c0.006-1.116,0.001-2.233,0.001-3.471C90.79,103.398,92.816,103.895,94.842,104.391z"/>
	</g>
</g>
<g>
	<path fill="#384702" d="M262.508,205v-8.396h6.332v1.643h-4.497v1.703h3.957v1.643h-3.957v1.763h4.558V205H262.508z"/>
	<path fill="#384702" d="M272.61,205.12c-0.899,0-1.907-0.3-2.759-0.972l0.78-1.199c0.695,0.503,1.427,0.768,2.026,0.768
		c0.527,0,0.768-0.192,0.768-0.48v-0.024c0-0.396-0.623-0.528-1.331-0.744c-0.899-0.264-1.919-0.684-1.919-1.931v-0.024
		c0-1.308,1.056-2.039,2.351-2.039c0.815,0,1.703,0.276,2.398,0.744l-0.695,1.259c-0.636-0.372-1.271-0.6-1.739-0.6
		c-0.443,0-0.672,0.192-0.672,0.444v0.024c0,0.36,0.612,0.527,1.308,0.768c0.899,0.3,1.943,0.731,1.943,1.907v0.024
		C275.069,204.472,274.002,205.12,272.61,205.12z"/>
	<path fill="#384702" d="M278.431,205.108c-1.115,0-1.871-0.444-1.871-1.931v-3.046h-0.768v-1.56h0.768v-1.643h1.823v1.643h1.511
		v1.56h-1.511v2.746c0,0.42,0.18,0.624,0.588,0.624c0.336,0,0.636-0.084,0.899-0.228v1.463
		C279.486,204.964,279.042,205.108,278.431,205.108z"/>
	<path fill="#384702" d="M285.005,205v-0.696c-0.443,0.492-1.055,0.816-1.942,0.816c-1.212,0-2.207-0.696-2.207-1.967v-0.024
		c0-1.403,1.067-2.051,2.591-2.051c0.647,0,1.115,0.108,1.571,0.264v-0.108c0-0.755-0.468-1.175-1.38-1.175
		c-0.695,0-1.187,0.132-1.774,0.348l-0.456-1.392c0.708-0.312,1.403-0.516,2.495-0.516c1.99,0,2.866,1.032,2.866,2.771V205H285.005z
		 M285.041,202.409c-0.312-0.144-0.72-0.24-1.163-0.24c-0.779,0-1.26,0.312-1.26,0.888v0.024c0,0.492,0.408,0.78,0.996,0.78
		c0.852,0,1.427-0.468,1.427-1.127V202.409z M283.146,197.864l1.355-2.123l1.57,0.684l-1.535,1.439H283.146z"/>
	<path fill="#384702" d="M290.599,205.12c-0.899,0-1.907-0.3-2.759-0.972l0.78-1.199c0.695,0.503,1.427,0.768,2.026,0.768
		c0.527,0,0.768-0.192,0.768-0.48v-0.024c0-0.396-0.623-0.528-1.331-0.744c-0.899-0.264-1.919-0.684-1.919-1.931v-0.024
		c0-1.308,1.056-2.039,2.351-2.039c0.815,0,1.703,0.276,2.398,0.744l-0.695,1.259c-0.636-0.372-1.271-0.6-1.739-0.6
		c-0.443,0-0.672,0.192-0.672,0.444v0.024c0,0.36,0.612,0.527,1.308,0.768c0.899,0.3,1.943,0.731,1.943,1.907v0.024
		C293.058,204.472,291.99,205.12,290.599,205.12z"/>
	<path fill="#384702" d="M304.407,205l-0.768-1.883h-3.55L299.322,205h-1.883l3.598-8.456h1.703l3.598,8.456H304.407z
		 M301.865,198.764l-1.116,2.722h2.231L301.865,198.764z"/>
	<path fill="#384702" d="M314.595,205.252l-0.923-0.828c-0.708,0.456-1.56,0.72-2.495,0.72c-2.591,0-4.449-1.931-4.449-4.318v-0.024
		c0-2.387,1.883-4.341,4.474-4.341s4.449,1.931,4.449,4.317v0.024c0,0.875-0.264,1.715-0.743,2.411l0.863,0.731L314.595,205.252z
		 M313.72,200.802c0-1.439-1.056-2.639-2.543-2.639s-2.519,1.175-2.519,2.615v0.024c0,1.439,1.056,2.639,2.543,2.639
		c0.407,0,0.779-0.084,1.104-0.228l-1.367-1.163l1.175-1.319l1.38,1.247c0.155-0.348,0.228-0.731,0.228-1.151V200.802z"/>
	<path fill="#384702" d="M320.802,205.132c-2.255,0-3.634-1.259-3.634-3.73v-4.797h1.847v4.75c0,1.367,0.684,2.075,1.811,2.075
		c1.128,0,1.812-0.684,1.812-2.015v-4.81h1.847v4.737C324.483,203.885,323.057,205.132,320.802,205.132z"/>
	<path fill="#384702" d="M326.455,205v-8.396h1.847V205H326.455z M326.61,195.945l1.355-2.123l1.571,0.684l-1.535,1.439H326.61z"/>
</g>
</svg>
