<?xml version="1.0" encoding="utf-8"?>
<!-- Generator: Adobe Illustrator 16.0.0, SVG Export Plug-In . SVG Version: 6.00 Build 0)  -->
<!DOCTYPE svg PUBLIC "-//W3C//DTD SVG 1.1//EN" "http://www.w3.org/Graphics/SVG/1.1/DTD/svg11.dtd">
<svg version="1.1" id="Layer_1" xmlns="http://www.w3.org/2000/svg" xmlns:xlink="http://www.w3.org/1999/xlink" x="0px" y="0px"
	 width="16px" height="16px" viewBox="0 0 16 16" enable-background="new 0 0 16 16" xml:space="preserve">
<polygon fill="#222222" points="16,8.039 16.02,8.02 16,8 16,0 0,0 0,16 8,16 8.02,16.02 8.04,16 16,16 "/>
<g>
	<path fill="#F9F9F9" d="M6.737,2.29C6.756,2.9,6.31,3.388,5.597,3.388C4.968,3.388,4.52,2.9,4.52,2.29
		c0-0.631,0.469-1.119,1.12-1.119C6.31,1.171,6.737,1.659,6.737,2.29z M4.745,14.898V5.056h1.789v9.843H4.745z"/>
	<path fill="#F9F9F9" d="M7.81,8.126c0-1.159-0.021-2.154-0.083-3.07h1.567l0.062,1.933h0.08c0.448-1.323,1.525-2.156,2.726-2.156
		c0.205,0,0.347,0.02,0.51,0.062v1.687C12.486,6.54,12.305,6.52,12.059,6.52c-1.26,0-2.154,0.955-2.399,2.298
		C9.62,9.062,9.579,9.347,9.579,9.65v5.248H7.81V8.126z"/>
</g>
</svg>
